<svg viewBox="0 0 1024 1024" preserveAspectRatio="xMidYMid slice" fill="none" xmlns="http://www.w3.org/2000/svg">
  <defs>
    <linearGradient id="headSoft" x1="393" y1="290" x2="742" y2="788" gradientUnits="userSpaceOnUse">
      <stop offset="0" stop-color="#FFFFFF"/>
      <stop offset="1" stop-color="#FAFAF7"/>
    </linearGradient>

    <path id="auraWave" d="M 787.5 524.0 C 792.5 536.1, 803.1 549.8, 804.6 562.4 C 806.0 574.9, 802.6 588.6, 796.3 599.5 C 790.0 610.4, 775.0 618.4, 766.8 627.7 C 758.5 637.1, 751.7 645.4, 746.8 655.6 C 742.0 665.8, 741.8 678.4, 737.7 689.0 C 733.7 699.7, 727.9 709.3, 722.6 719.4 C 717.2 729.5, 710.8 738.2, 705.8 749.5 C 700.8 760.8, 698.7 776.7, 692.5 787.4 C 686.3 798.1, 678.7 809.8, 668.5 813.8 C 658.2 817.8, 642.9 812.7, 631.0 811.5 C 619.1 810.3, 607.0 804.6, 596.9 806.4 C 586.9 808.3, 579.6 816.8, 570.5 822.4 C 561.5 828.1, 552.4 836.5, 542.6 840.4 C 532.9 844.3, 522.4 843.7, 512.0 845.9 C 501.6 848.0, 491.0 851.5, 480.1 853.2 C 469.3 854.9, 457.0 859.7, 446.9 856.0 C 436.8 852.3, 427.5 841.2, 419.7 830.9 C 412.0 820.5, 407.8 802.7, 400.3 793.9 C 392.8 785.1, 384.7 781.4, 374.8 778.0 C 364.9 774.7, 351.2 777.4, 340.9 773.7 C 330.5 770.0, 321.1 763.2, 312.8 755.8 C 304.5 748.3, 298.4 738.0, 291.0 729.1 C 283.5 720.2, 273.7 712.7, 268.1 702.3 C 262.5 691.9, 258.0 679.6, 257.5 666.6 C 257.1 653.6, 264.1 637.3, 265.3 624.5 C 266.4 611.7, 268.3 600.6, 264.5 589.7 C 260.6 578.9, 248.7 570.3, 242.3 559.4 C 235.8 548.4, 227.9 536.1, 225.7 524.0 C 223.5 511.9, 227.3 499.1, 229.1 486.9 C 230.8 474.7, 233.3 462.6, 236.1 450.7 C 239.0 438.9, 240.3 426.0, 246.2 415.8 C 252.2 405.6, 263.3 397.5, 271.8 389.4 C 280.3 381.2, 291.9 376.7, 297.3 367.0 C 302.6 357.2, 302.0 344.1, 303.8 330.8 C 305.7 317.6, 304.0 299.0, 308.6 287.3 C 313.2 275.5, 322.4 267.1, 331.4 260.5 C 340.5 254.0, 352.8 252.2, 362.8 247.7 C 372.8 243.2, 381.7 236.7, 391.7 233.3 C 401.7 229.9, 412.3 227.5, 422.8 227.3 C 433.3 227.1, 444.8 233.3, 454.8 232.3 C 464.8 231.3, 473.1 227.8, 482.7 221.1 C 492.2 214.4, 501.6 198.4, 512.0 192.2 C 522.4 185.9, 534.5 181.5, 545.0 183.5 C 555.4 185.5, 565.2 197.2, 574.7 204.2 C 584.2 211.1, 592.8 219.0, 601.9 225.2 C 610.9 231.3, 620.8 234.4, 629.1 241.1 C 637.4 247.8, 644.0 257.9, 651.6 265.5 C 659.2 273.0, 665.0 281.8, 674.8 286.5 C 684.5 291.2, 698.6 289.8, 710.1 293.5 C 721.6 297.3, 736.3 300.1, 743.8 308.9 C 751.2 317.8, 752.8 333.4, 754.6 346.6 C 756.4 359.8, 753.0 375.6, 754.4 388.2 C 755.8 400.7, 760.1 410.7, 763.0 421.8 C 765.9 433.0, 769.7 443.7, 771.6 455.0 C 773.5 466.3, 771.8 478.1, 774.5 489.6 C 777.1 501.1, 782.5 511.9, 787.5 524.0 Z"/>
  </defs>

  <g opacity="0.92" stroke-linecap="round" stroke-linejoin="round" vector-effect="non-scaling-stroke">
    <use href="#auraWave" stroke="#FF6A55" stroke-width="31" transform="translate(512 524) scale(1.12) translate(-512 -524)"/>
    <use href="#auraWave" stroke="#FFD83D" stroke-width="29" transform="translate(512 524) scale(1.04) translate(-512 -524)"/>
    <use href="#auraWave" stroke="#8BEA7A" stroke-width="28" transform="translate(512 524) scale(0.96) translate(-512 -524)"/>
    <use href="#auraWave" stroke="#5DE8DD" stroke-width="27" transform="translate(512 524) scale(0.88) translate(-512 -524)"/>
    <use href="#auraWave" stroke="#43B7FF" stroke-width="26" transform="translate(512 524) scale(0.80) translate(-512 -524)"/>
    <use href="#auraWave" stroke="#9A74FF" stroke-width="25" transform="translate(512 524) scale(0.72) translate(-512 -524)"/>
    <use href="#auraWave" stroke="#FF7AD9" stroke-width="24" transform="translate(512 524) scale(0.64) translate(-512 -524)"/>
  </g>

  <path d="M514.7 283.8C436.9 283.8 368.4 339.5 351.4 417.5C340.8 465.9 353.4 508.1 376.3 549.1C396.9 586.1 414.8 621.5 402.8 670.6C397 694.3 386.1 718.5 392.4 737.1C400.2 760.4 428.7 776.8 486.4 780.7C523.3 783.2 556.6 780.2 570.2 772.4C581.3 766 583.6 752.1 585 730.4L587.7 692.4C589.1 672.8 604.3 657.4 623.9 656.7L670.3 655.2C696.6 654.4 713.8 640.5 722.1 617.3C731.6 590.8 742.3 555.4 731.7 531.9C724.8 516.6 724.1 505.2 736.3 492.1C749.7 477.7 746.2 459.9 735.1 441.3C721.2 418.1 724.9 394.9 718.6 367.7C707.7 320.3 659.9 283.8 586.2 283.8H514.7Z" fill="url(#headSoft)"/>

  <path d="M391.3 736.7C410.7 766.7 445.6 784 514.3 784C552.4 784 579.7 778.4 584.3 765.2C587.5 756.2 587.3 743.7 587.2 729.4C565.4 735.9 533.5 739.7 499.1 738.7C454.8 737.4 419.2 728.1 397.6 711.7C393.5 720.5 390.5 729.1 391.3 736.7Z" fill="#FFFFFF" opacity="0.98"/>
</svg>