<?xml version="1.0" encoding="UTF-8"?>
<svg version="1.1" xmlns="http://www.w3.org/2000/svg" width="264" height="264">
<path d="M0 0 C1.41157711 1.18990345 2.80837456 2.39763161 4.1875 3.625 C4.81398437 4.14707031 5.44046875 4.66914062 6.0859375 5.20703125 C13.4869189 11.84852329 16.97876885 20.22240014 18.25 29.9375 C19.04757689 34.30495415 19.47099374 36.0519957 22.9765625 38.85546875 C26.32716826 40.60009451 29.72567394 42.11610432 33.1875 43.625 C36.05698808 45.41247181 38.62558921 47.42361397 41.1875 49.625 C41.86425781 50.19605469 42.54101562 50.76710937 43.23828125 51.35546875 C53.53547533 60.76062718 58.60222658 75.35402528 59.38671875 89.12109375 C58.61701851 102.65876262 53.84278139 114.52836866 43.9375 123.9375 C33.16719936 132.88824473 22.14943745 136.75572029 8.1875 135.625 C6.33924046 135.18335787 4.50335729 134.68515481 2.6875 134.125 C-8.40031008 130.89105539 -15.82426437 132.07111461 -25.875 137.5 C-28.20571109 138.80222769 -30.52114749 140.12329428 -32.82055664 141.47998047 C-34.77620379 142.60413602 -36.79492097 143.61621048 -38.8125 144.625 C-38.8125 149.905 -38.8125 155.185 -38.8125 160.625 C-36.4303125 160.810625 -36.4303125 160.810625 -34 161 C-30.31907469 161.28682535 -28.97490582 161.51672945 -25.8125 163.625 C-26.125 167 -26.125 167 -26.8125 170.625 C-30.29914397 172.94942932 -31.7178598 172.88205205 -35.8359375 172.890625 C-37.021875 172.89320313 -38.2078125 172.89578125 -39.4296875 172.8984375 C-40.66976562 172.89070312 -41.90984375 172.88296875 -43.1875 172.875 C-44.41984375 172.88273438 -45.6521875 172.89046875 -46.921875 172.8984375 C-48.11039062 172.89585937 -49.29890625 172.89328125 -50.5234375 172.890625 C-52.15224854 172.88724121 -52.15224854 172.88724121 -53.81396484 172.88378906 C-56.8991805 172.61751903 -59.06547389 172.03782594 -61.8125 170.625 C-63.3125 168.25 -63.3125 168.25 -63.8125 165.625 C-63 163.375 -63 163.375 -60.8125 161.625 C-58.45141916 161.19262972 -56.17120763 160.99931456 -53.7734375 160.8984375 C-52.80277344 160.76308594 -52.80277344 160.76308594 -51.8125 160.625 C-50.31093126 157.62186252 -50.71968796 154.83432478 -50.75 151.5 C-50.75902344 150.21867188 -50.76804687 148.93734375 -50.77734375 147.6171875 C-50.78894531 146.62976563 -50.80054688 145.64234375 -50.8125 144.625 C-51.493125 144.67140625 -52.17375 144.7178125 -52.875 144.765625 C-68.98210916 145.36535779 -82.63425781 140.5383329 -94.671875 129.8828125 C-96.8125 127.625 -96.8125 127.625 -97.85327148 125.83178711 C-100.06830239 121.97923506 -100.06830239 121.97923506 -103.89013672 120.03417969 C-106.40546663 119.85232357 -108.85441428 119.86188712 -111.375 119.9375 C-125.06440132 119.78191056 -135.55348812 116.49987179 -145.66015625 106.86328125 C-150.46838695 101.60612483 -153.12757614 95.7482081 -153.8125 88.625 C-153.88855469 87.87992187 -153.96460938 87.13484375 -154.04296875 86.3671875 C-154.89964837 70.85434029 -146.87771783 52.36750951 -136.88549805 40.64770508 C-128.75522924 31.71228895 -118.72928066 23.64128058 -106.8125 20.625 C-103.54296875 20.84375 -103.54296875 20.84375 -100.8125 21.625 C-99.4375 24.1875 -99.4375 24.1875 -98.8125 26.625 C-102.50369319 29.37376089 -106.11819842 31.84734662 -110.1875 34 C-126.56768115 43.01049014 -134.83349836 57.73096133 -140.8125 74.9375 C-142.78245128 82.3156405 -141.72073025 89.26915924 -137.95703125 95.87890625 C-133.69194277 102.3857136 -128.25205096 104.96470997 -120.8125 106.625 C-116.12206246 106.92652813 -111.50416545 106.87156928 -106.8125 106.625 C-106.89951172 104.91957031 -106.89951172 104.91957031 -106.98828125 103.1796875 C-107.45284146 90.20024231 -106.28217299 79.43142813 -97.5625 69.0625 C-92.66308692 64.11417431 -87.64564717 60.40727493 -80.75 59 C-72.97311157 60.65465711 -67.21495707 66.2373228 -62.8125 72.625 C-58.60650811 79.94759399 -54.62817637 87.97943747 -55.8125 96.625 C-59.32776609 105.52565373 -67.09014824 109.97540598 -75.375 113.875 C-79.44507735 115.59475099 -83.49980904 116.68404924 -87.8125 117.625 C-86.29452065 122.17893806 -82.73997536 124.2461633 -78.8125 126.625 C-67.36289943 132.245713 -53.1942356 134.02860113 -40.74609375 130.6796875 C-34.86474538 128.66213757 -29.67517939 126.14688325 -24.51953125 122.6953125 C-18.01885494 118.61937358 -9.15941373 118.50615241 -1.81738281 120.04248047 C0.97207974 120.73105168 3.74138386 121.45821364 6.49194336 122.28955078 C15.5292419 124.89771446 23.12902666 121.75068117 31.1875 117.625 C39.08671545 112.51909265 42.42231307 105.5843347 45.5 96.9375 C47.67367108 86.46435751 44.90165076 74.64296883 39.1875 65.625 C34.95457819 59.33975247 28.1714515 54.11436113 20.84765625 51.92578125 C20.29980469 51.82652344 19.75195312 51.72726563 19.1875 51.625 C18.98125 52.90375 18.775 54.1825 18.5625 55.5 C17.02266 62.4128987 13.55192763 68.2029034 8.625 73.25 C5.79905718 74.84412159 4.37093334 75.29519649 1.1875 74.625 C-0.6875 72.9375 -0.6875 72.9375 -1.8125 70.625 C-1.8125 66.38028051 0.10103409 64.60380256 2.84375 61.58203125 C5.67884644 57.45300998 6.80598989 52.39468297 8.1875 47.625 C3.88033519 46.58389194 -0.34039678 46.40775471 -4.75 46.375 C-5.44029297 46.354375 -6.13058594 46.33375 -6.84179688 46.3125 C-11.62684422 46.27621528 -14.68328006 47.28654459 -18.8125 49.625 C-19.4725 49.625 -20.1325 49.625 -20.8125 49.625 C-20.77769531 50.32367188 -20.74289063 51.02234375 -20.70703125 51.7421875 C-20.67996094 52.65226562 -20.65289062 53.56234375 -20.625 54.5 C-20.59019531 55.40492187 -20.55539063 56.30984375 -20.51953125 57.2421875 C-20.66455078 58.42167969 -20.66455078 58.42167969 -20.8125 59.625 C-23.8125 61.625 -23.8125 61.625 -26.25 61.8125 C-29.93481236 60.10490403 -30.65342053 57.65896814 -32.078125 53.96875 C-33.04235071 50.8914339 -33.45035959 48.81429795 -32.8125 45.625 C-28.44436037 39.00660662 -22.48336692 35.61855863 -14.8125 33.625 C-11.18305894 33.39063251 -7.57249061 33.435969 -3.9375 33.5 C-2.96296875 33.50902344 -1.9884375 33.51804688 -0.984375 33.52734375 C1.40650728 33.55078377 3.79687261 33.58359558 6.1875 33.625 C5.21361714 25.2598588 2.68045186 18.53413498 -3.625 12.75 C-15.31613664 3.52243005 -31.13908841 0.09426476 -45.8125 1.625 C-55.23953688 3.04886438 -64.13756309 5.14971258 -72.55078125 9.76953125 C-75.39608213 10.84573314 -76.94669984 10.5497624 -79.8125 9.625 C-81.6875 7.8125 -81.6875 7.8125 -82.8125 5.625 C-82.57388297 2.91344282 -82.12653005 1.89785722 -80.0546875 0.09765625 C-56.5765101 -13.88851873 -22.86170948 -17.16552597 0 0 Z M-88.875 76.62109375 C-94.79921286 82.74835422 -95.99673094 89.15914951 -95.9140625 97.3984375 C-95.78652388 100.19447644 -95.37452979 102.88510476 -94.8125 105.625 C-86.1697336 105.47598679 -79.04708312 102.20179729 -71.8125 97.625 C-68.3838813 94.09500533 -68.3838813 94.09500533 -67.75 89.375 C-69.88667616 81.83379004 -73.26623601 76.03661269 -79.8125 71.625 C-84.13691159 71.625 -85.76969392 73.79549355 -88.875 76.62109375 Z " fill="#000000" transform="translate(179.8125,53.375)"/>
</svg>
