<svg xmlns="http://www.w3.org/2000/svg" viewBox="0 0 48 48" width="48" height="48">
<path d="M 17.25 30.77 C 16.26 29.92 16.20 28.30 15.54 27.25 C 14.87 26.20 13.31 25.53 13.26 24.45 C 13.20 23.38 14.72 22.28 15.22 20.78 C 15.71 19.28 15.45 16.97 16.22 15.47 C 16.98 13.97 18.70 12.23 19.83 11.77 C 20.97 11.32 21.80 12.92 23.01 12.75 C 24.23 12.58 25.91 10.75 27.13 10.75 C 28.34 10.75 29.18 12.61 30.31 12.74 C 31.44 12.87 32.77 11.05 33.92 11.53 C 35.06 12.02 36.87 14.36 37.17 15.65 C 37.47 16.94 35.51 18.06 35.69 19.27 C 35.88 20.48 38.24 21.71 38.28 22.92 C 38.33 24.13 36.91 25.19 35.96 26.52 C 35.00 27.85 34.05 29.96 32.54 30.90 C 31.03 31.83 28.73 31.91 26.89 32.15 C 25.05 32.39 23.09 32.56 21.48 32.33 C 19.88 32.10 18.25 31.62 17.25 30.77 Z" fill="none" stroke="currentColor" stroke-width="2.4" stroke-linecap="round" stroke-linejoin="round" />
<path d="M 18.24 20.03 C 18.63 19.37 19.53 18.67 20.28 18.52 C 21.03 18.37 22.07 18.69 22.71 19.13 C 23.35 19.56 23.93 20.38 24.10 21.12 C 24.27 21.86 24.11 22.87 23.72 23.54 C 23.33 24.21 22.47 24.99 21.73 25.15 C 21.00 25.30 19.92 24.92 19.29 24.48 C 18.65 24.03 18.10 23.22 17.93 22.47 C 17.75 21.73 17.85 20.69 18.24 20.03 Z" fill="none" stroke="currentColor" stroke-width="2.4" stroke-linecap="round" stroke-linejoin="round" />
<circle cx="21.4" cy="22.1" r="1.5" fill="currentColor"/>
<path d="M 25.50 32.60 Q 24.79 34.40 25.20 37.50" fill="none" stroke="currentColor" stroke-width="2.4" stroke-linecap="round" stroke-linejoin="round" />
<path d="M 22.20 37.60 Q 24.99 37.60 28.40 37.40" fill="none" stroke="currentColor" stroke-width="2.4" stroke-linecap="round" stroke-linejoin="round" />
</svg>