<svg xmlns="http://www.w3.org/2000/svg" viewBox="0 0 48 48" width="48" height="48">
<path d="M 13.82 35.28 C 12.49 34.14 13.22 30.31 13.26 28.99 C 13.30 27.66 14.41 27.55 14.07 27.32 C 13.72 27.09 12.19 27.79 11.18 27.60 C 10.17 27.41 8.75 26.95 8.01 26.17 C 7.27 25.40 6.68 24.05 6.75 22.94 C 6.82 21.83 7.65 20.31 8.42 19.50 C 9.19 18.69 10.44 18.17 11.37 18.07 C 12.31 17.97 13.71 19.20 14.04 18.93 C 14.37 18.66 13.37 17.19 13.35 16.44 C 13.33 15.68 13.11 14.83 13.90 14.40 C 14.70 13.97 16.93 14.03 18.11 13.84 C 19.29 13.64 20.43 13.70 21.00 13.23 C 21.58 12.76 21.66 11.63 21.55 11.02 C 21.44 10.41 20.26 10.28 20.32 9.58 C 20.39 8.88 21.25 7.40 21.94 6.82 C 22.62 6.24 23.67 6.00 24.46 6.11 C 25.24 6.21 26.09 6.80 26.64 7.44 C 27.19 8.09 27.73 9.34 27.73 9.97 C 27.74 10.61 26.75 10.68 26.67 11.24 C 26.59 11.79 26.63 12.90 27.25 13.31 C 27.86 13.73 29.10 13.57 30.36 13.73 C 31.62 13.89 33.99 13.13 34.81 14.28 C 35.63 15.43 35.22 18.38 35.27 20.64 C 35.32 22.90 35.22 25.47 35.11 27.82 C 35.01 30.17 35.84 33.44 34.64 34.75 C 33.43 36.05 30.12 35.46 27.87 35.64 C 25.63 35.82 23.53 35.88 21.19 35.82 C 18.84 35.76 15.14 36.42 13.82 35.28 Z" fill="none" stroke="currentColor" stroke-width="2.4" stroke-linecap="round" stroke-linejoin="round" />
<path d="M 25.51 26.40 Q 25.58 25.40 26.57 25.56 L 30.50 26.18 Q 31.48 26.34 31.35 27.33 L 30.90 30.67 Q 30.76 31.66 29.77 31.55 L 26.13 31.14 Q 25.14 31.03 25.22 30.03 Z" fill="none" stroke="currentColor" stroke-width="2.4" stroke-linecap="round" stroke-linejoin="round" />
</svg>