<svg xmlns="http://www.w3.org/2000/svg" viewBox="0 0 48 48" width="48" height="48">
<path d="M 31.61 27.19 C 31.20 25.92 31.18 24.00 31.80 22.86 C 32.41 21.71 34.01 20.68 35.29 20.32 C 36.57 19.96 38.32 20.09 39.48 20.69 C 40.63 21.29 41.87 22.69 42.22 23.92 C 42.57 25.14 42.20 26.88 41.59 28.03 C 40.97 29.18 39.74 30.41 38.53 30.82 C 37.32 31.23 35.45 31.10 34.30 30.49 C 33.14 29.89 32.03 28.46 31.61 27.19 Z" fill="none" stroke="currentColor" stroke-width="2.4" stroke-linecap="round" stroke-linejoin="round" />
<path d="M 33.42 29.18 C 34.68 29.59 36.09 30.51 36.70 31.58 C 37.31 32.65 37.38 34.35 37.07 35.62 C 36.76 36.89 35.93 38.52 34.84 39.19 C 33.75 39.86 31.75 40.05 30.52 39.65 C 29.30 39.25 28.19 37.95 27.50 36.79 C 26.82 35.63 26.14 33.94 26.42 32.67 C 26.70 31.41 28.00 29.76 29.16 29.17 C 30.33 28.59 32.17 28.78 33.42 29.18 Z" fill="none" stroke="currentColor" stroke-width="2.4" stroke-linecap="round" stroke-linejoin="round" />
<path d="M 19.28 32.32 C 20.29 31.61 22.16 31.44 23.40 31.72 C 24.64 31.99 25.96 32.94 26.71 33.97 C 27.45 35.00 28.09 36.70 27.87 37.90 C 27.65 39.11 26.47 40.49 25.40 41.20 C 24.34 41.90 22.71 42.33 21.49 42.11 C 20.26 41.90 18.75 40.96 18.06 39.93 C 17.36 38.91 17.14 37.24 17.34 35.97 C 17.54 34.70 18.27 33.02 19.28 32.32 Z" fill="none" stroke="currentColor" stroke-width="2.4" stroke-linecap="round" stroke-linejoin="round" />
<path d="M 8.45 33.25 C 8.12 31.99 8.24 30.09 8.92 28.99 C 9.60 27.89 11.23 26.94 12.53 26.65 C 13.84 26.37 15.64 26.59 16.74 27.28 C 17.84 27.97 18.83 29.50 19.13 30.79 C 19.43 32.08 19.22 33.90 18.53 35.00 C 17.84 36.09 16.27 37.10 15.00 37.36 C 13.74 37.62 12.03 37.25 10.94 36.57 C 9.84 35.88 8.79 34.52 8.45 33.25 Z" fill="none" stroke="currentColor" stroke-width="2.4" stroke-linecap="round" stroke-linejoin="round" />
<path d="M 16.92 22.36 C 16.95 23.70 16.16 25.48 15.20 26.43 C 14.24 27.39 12.49 28.10 11.18 28.08 C 9.87 28.06 8.25 27.23 7.35 26.30 C 6.45 25.38 5.79 23.79 5.77 22.52 C 5.76 21.26 6.37 19.59 7.25 18.71 C 8.12 17.83 9.72 17.28 11.02 17.23 C 12.32 17.17 14.06 17.52 15.05 18.37 C 16.03 19.23 16.89 21.01 16.92 22.36 Z" fill="none" stroke="currentColor" stroke-width="2.4" stroke-linecap="round" stroke-linejoin="round" />
<path d="M 11.33 17.13 C 10.58 16.08 10.41 14.25 10.62 12.91 C 10.83 11.57 11.53 9.87 12.58 9.07 C 13.62 8.27 15.62 7.84 16.88 8.12 C 18.15 8.40 19.44 9.66 20.16 10.74 C 20.89 11.83 21.35 13.33 21.22 14.62 C 21.08 15.90 20.37 17.69 19.35 18.45 C 18.34 19.21 16.44 19.40 15.10 19.18 C 13.77 18.96 12.08 18.17 11.33 17.13 Z" fill="none" stroke="currentColor" stroke-width="2.4" stroke-linecap="round" stroke-linejoin="round" />
<path d="M 30.95 10.42 C 31.04 11.72 30.46 13.27 29.67 14.30 C 28.89 15.34 27.51 16.42 26.24 16.64 C 24.98 16.85 23.06 16.39 22.06 15.58 C 21.06 14.76 20.35 13.03 20.25 11.75 C 20.14 10.47 20.66 8.88 21.43 7.88 C 22.21 6.88 23.61 5.97 24.89 5.74 C 26.17 5.52 28.12 5.73 29.13 6.51 C 30.13 7.29 30.86 9.13 30.95 10.42 Z" fill="none" stroke="currentColor" stroke-width="2.4" stroke-linecap="round" stroke-linejoin="round" />
<path d="M 34.49 10.73 C 35.76 10.81 37.36 11.48 38.18 12.40 C 39.01 13.32 39.53 15.00 39.46 16.24 C 39.38 17.48 38.64 18.94 37.72 19.84 C 36.80 20.74 35.18 21.72 33.94 21.66 C 32.70 21.61 31.18 20.51 30.30 19.52 C 29.43 18.52 28.65 16.96 28.69 15.69 C 28.74 14.43 29.60 12.75 30.56 11.92 C 31.53 11.09 33.22 10.65 34.49 10.73 Z" fill="none" stroke="currentColor" stroke-width="2.4" stroke-linecap="round" stroke-linejoin="round" />
<path d="M 29.81 24.00 C 29.80 25.12 30.23 26.43 29.79 27.34 C 29.34 28.25 28.11 28.99 27.15 29.45 C 26.18 29.91 25.05 30.09 24.00 30.09 C 22.95 30.08 21.79 29.92 20.86 29.44 C 19.92 28.97 18.83 28.15 18.39 27.24 C 17.94 26.33 18.16 25.07 18.17 24.00 C 18.19 22.93 18.07 21.80 18.47 20.81 C 18.87 19.82 19.66 18.57 20.58 18.08 C 21.50 17.58 22.90 17.76 24.00 17.82 C 25.10 17.88 26.22 17.99 27.20 18.45 C 28.18 18.92 29.44 19.68 29.88 20.61 C 30.31 21.53 29.83 22.88 29.81 24.00 Z" fill="none" stroke="currentColor" stroke-width="2.4" stroke-linecap="round" stroke-linejoin="round" />
</svg>