<svg xmlns="http://www.w3.org/2000/svg" viewBox="0 0 48 48" width="48" height="48">
<path d="M 38.77 23.22 Q 40.29 23.73 40.17 25.32 L 40.12 25.97 Q 40.00 27.57 38.40 27.69 L 36.69 27.81 Q 35.09 27.93 34.44 29.39 L 34.19 29.98 Q 33.54 31.44 34.36 32.81 L 35.12 34.07 Q 35.94 35.45 34.60 36.32 L 33.98 36.72 Q 32.64 37.60 31.37 36.63 L 30.57 36.01 Q 29.30 35.04 27.77 35.50 L 27.09 35.70 Q 25.55 36.15 25.14 37.70 L 24.78 39.05 Q 24.37 40.59 22.82 40.19 L 21.99 39.98 Q 20.44 39.58 20.28 37.99 L 20.16 36.89 Q 20.00 35.30 18.56 34.60 L 18.00 34.33 Q 16.56 33.63 15.15 34.40 L 13.97 35.04 Q 12.57 35.80 11.58 34.55 L 11.06 33.89 Q 10.07 32.63 11.11 31.42 L 11.81 30.61 Q 12.85 29.39 12.53 27.83 L 12.44 27.39 Q 12.13 25.82 10.59 25.36 L 8.81 24.81 Q 7.27 24.35 7.55 22.78 L 7.69 22.02 Q 7.97 20.44 9.57 20.35 L 10.95 20.28 Q 12.55 20.19 13.21 18.73 L 13.48 18.13 Q 14.14 16.67 13.37 15.27 L 12.63 13.92 Q 11.86 12.52 13.17 11.59 L 14.05 10.97 Q 15.36 10.05 16.52 11.15 L 17.86 12.42 Q 19.02 13.52 20.49 12.89 L 20.88 12.73 Q 22.35 12.10 22.77 10.55 L 23.12 9.24 Q 23.54 7.70 25.13 7.85 L 26.06 7.93 Q 27.65 8.08 27.74 9.68 L 27.82 11.23 Q 27.91 12.82 29.38 13.44 L 29.71 13.57 Q 31.19 14.19 32.61 13.46 L 34.10 12.69 Q 35.53 11.96 36.36 13.33 L 36.85 14.13 Q 37.68 15.49 36.68 16.74 L 35.92 17.68 Q 34.92 18.93 35.36 20.42 L 35.46 20.75 Q 35.90 22.24 37.42 22.76 Z" fill="none" stroke="currentColor" stroke-width="2.4" stroke-linecap="round" stroke-linejoin="round" />
<path d="M 19.63 21.79 C 20.12 20.82 21.46 19.95 22.55 19.59 C 23.65 19.23 25.21 19.16 26.20 19.65 C 27.18 20.14 28.14 21.46 28.47 22.53 C 28.80 23.61 28.67 25.12 28.18 26.11 C 27.68 27.10 26.54 28.13 25.48 28.49 C 24.42 28.86 22.79 28.83 21.82 28.32 C 20.85 27.81 20.01 26.52 19.64 25.43 C 19.28 24.34 19.15 22.77 19.63 21.79 Z" fill="none" stroke="currentColor" stroke-width="2.4" stroke-linecap="round" stroke-linejoin="round" />
</svg>